<svg xmlns="http://www.w3.org/2000/svg" xmlns:xlink="http://www.w3.org/1999/xlink" version="1.1" style="enable-background:new 0 0 512 512;" xml:space="preserve" width="512" height="512"><rect id="backgroundrect" width="100%" height="100%" x="0" y="0" fill="none" stroke="none"/>




























<g class="currentLayer" style=""><title>Layer 1</title><path style="fill:#466288;" d="M512,477H322V117h190V477z" id="svg_1" class=""/><rect x="417" y="117" style="fill:#243145;" width="95" height="360" id="svg_2" class=""/><g id="svg_3" class="" fill="#b804b8" fill-opacity="1">
	<rect x="415" y="297" style="" width="37" height="30" id="svg_4" fill="#b804b8" fill-opacity="1"/>
	<rect x="415" y="237" style="" width="37" height="30" id="svg_5" fill="#b804b8" fill-opacity="1"/>
	<rect x="415" y="177" style="" width="37" height="30" id="svg_6" fill="#b804b8" fill-opacity="1"/>
</g><path style="fill:#466288;" d="M270,477H160V347h110V477z" id="svg_7"/><path style="fill:#243145;" d="M270,477h-55V347h55V477z" id="svg_8"/><path style="fill:#DAE0E7;" d="M430,387H0V35h430V387z" id="svg_9"/><rect x="215" y="35" style="fill:#BEC8D6;" width="215" height="352" id="svg_10"/><path style="" d="M370,327H60V95h310V327z" id="svg_11" class="" fill="#ecabec" fill-opacity="1"/><rect x="135" y="447" style="fill:#DAE0E7;" width="160" height="30" id="svg_12"/><rect x="215" y="447" style="fill:#BEC8D6;" width="80" height="30" id="svg_13"/><path style="" d="M370,327H215V95h155V327z" id="svg_14" class="" fill="#b804b8" fill-opacity="1"/><path style="" d="M290,163.224l-75-38.043l-75,38.043v96.047l75,37.5l75-37.5V163.224z M215,158.819l41.112,20.854  L215,200.229l-41.112-20.556L215,158.819z M260,240.729l-45,22.5l-45-22.5V211.27l45,22.5l45-22.5V240.729z" id="svg_15" class="" fill="#e767e7" fill-opacity="1"/><polygon style="" points="256.112,179.673 215,200.229 215,233.771 260,211.271 260,240.729 215,263.229 215,296.771   290,259.271 290,163.224 215,125.181 215,158.819 " id="svg_16" class="" fill="#990098" fill-opacity="1" stroke="none"/><g id="svg_17">
</g><g id="svg_18">
</g><g id="svg_19">
</g><g id="svg_20">
</g><g id="svg_21">
</g><g id="svg_22">
</g><g id="svg_23">
</g><g id="svg_24">
</g><g id="svg_25">
</g><g id="svg_26">
</g><g id="svg_27">
</g><g id="svg_28">
</g><g id="svg_29">
</g><g id="svg_30">
</g><g id="svg_31">
</g></g></svg>